<?xml version="1.0" encoding="utf-8"?>
<svg version="1.1" viewBox="0 0 48 48" width="48px" height="48px" xmlns="http://www.w3.org/2000/svg">
  <g transform="matrix(1, 0, 0, 1, 0.618009, 5.527468)"/>
  <g clip-path="url(#SvgjsClipPath1009)" transform="matrix(10.316287, 0, 0, 10.341403, -4.132956, 50.759838)">
    <g clip-path="url(#SvgjsClipPath1008)">
      <path d=" M 1.383559782833812 -2.3880120673465863 L 0.9588695310907352 -2.3109611216731993 C 0.9356901691729335 -2.4654415939330416 0.9328346371000582 -2.6222918913648274 0.9503757260558847 -2.777513698230953 L 0.9503757260558847 -2.783580701827283 L 0.9503757260558715 -2.790861106142879 L 0.9503757260558715 -2.806635315493336 L 0.9503757260558715 -2.8133090194492985 C 0.9765068998753911 -3.0140085230702276 1.036836570342687 -3.2087461328439453 1.1287456317879647 -3.389067660740986 L 1.1287456317879647 -3.389067660740987 L 1.1342059350246614 -3.4005949675740137 L 1.1342059350246614 -3.4005949675740137 C 1.2279848960615767 -3.582613321678606 1.3528162742843368 -3.7468651351296005 1.5030797536815095 -3.885955255280391 L 1.5091467572778436 -3.8920222588767195 L 1.5091467572778436 -3.8920222588767195 L 1.5091467572778436 -3.895055760674884 L 1.5152137608741776 -3.9005160639115806 L 1.5152137608741776 -3.9005160639115806 C 1.5431219774172988 -3.9253907786565323 1.5716368943200438 -3.949658793041851 1.600151811222789 -3.9727134067079044 L 1.52795446842647 -4.0576514570565205 L 1.2646465123457522 -4.390123254135388 C 1.8047392499697301 -4.826754535890604 2.5114030231426008 -4.999805972947101 3.192133554899705 -4.862136133929839 L 3.192133554899705 -4.862136133929839 L 3.208514464609795 -4.858495931772041 L 3.214581468206116 -4.858495931772041 C 3.4817295933068664 -4.80277337242428 3.736862774570094 -4.700062751947941 3.9681033148702713 -4.555145751955556 L 3.975990419545498 -4.550898849438125 L 3.975990419545498 -4.550898849438125 L 3.998438332851922 -4.536338040806934 C 4.254348703954989 -4.370668187262244 4.474970538869554 -4.156025822639755 4.647607717659195 -3.9047629664290118 L 4.652461320536261 -3.898089262473049 L 4.65731492341332 -3.8908088581574534 L 4.660955125571119 -3.8859552552803898 L 4.660955125571119 -3.8859552552803898 L 4.665808728448178 -3.878674850964794 L 4.670662331325252 -3.8665408437721345 L 4.674909233842687 -3.860473840175805 L 4.674909233842687 -3.860473840175805 L 4.679762836719746 -3.8531934358602093 L 4.684009739237181 -3.8459130315446135 L 4.6888633421142405 -3.8392393275886514 L 4.6888633421142405 -3.8392393275886514 C 4.732942723680523 -3.7712216716959905 4.7734444314055775 -3.70095120879302 4.8102034140408225 -3.6287143027960127 L 4.810203414040837 -3.6287143027960127 C 4.818697219075693 -3.6117266927262874 4.826584323750927 -3.5953457830161972 4.834471428426159 -3.5783581729464737 L 4.4467898986206915 -3.396348065056583 C 4.415641604930217 -3.462673289944364 4.3805939014951 -3.527096236143012 4.3418307364041855 -3.589278779419865 L 4.3418307364041855 -3.5892787794198675 L 4.333943631728946 -3.601412786612527 L 4.330303429571148 -3.601412786612527 L 4.330303429571148 -3.601412786612527 L 4.32666322741335 -3.6074797902088562 L 4.323023025255552 -3.612940093445553 L 4.318776122738117 -3.619007097041883 L 4.318776122738117 -3.619007097041883 L 4.318776122738117 -3.6238606999189464 L 4.315135920580319 -3.629927703515276 L 4.306642115545468 -3.639634909269404 L 4.306642115545468 -3.639634909269404 L 4.306642115545468 -3.6438818117868346 L 4.303001913387671 -3.649342115023531 L 4.298755010870236 -3.654802418260228 L 4.295114808712437 -3.6608694218565576 L 4.290867906195009 -3.666329725093254 L 4.287227704037212 -3.671790028329951 C 4.254061417710608 -3.7191126563813226 4.218872796851892 -3.7646151833537953 4.181661841461068 -3.8082976092473695 C 4.067318134707119 -3.942891059116057 3.9347972113600957 -4.060914315964397 3.787913308059273 -4.158970417115227 L 3.7733524994280816 -4.168677622869353 L 3.769712297270277 -4.168677622869353 L 3.754544788279455 -4.178384828623481 C 3.6501947923694216 -4.244727428511416 3.5396636189503847 -4.300805744437256 3.4244997926391214 -4.345834127882182 L 3.4244997926391214 -4.345834127882182 C 3.387491070701519 -4.363428438311537 3.3523024498428025 -4.376169145863829 3.3165071286244614 -4.390123254135388 L 3.3165071286244614 -4.390123254135388 C 3.2637241973363866 -4.407717564564744 3.210334565688694 -4.422278373195935 3.1569449340409883 -4.435019080748228 L 3.1569449340409883 -4.435019080748228 L 3.142384125409797 -4.435019080748228 L 3.134497020734564 -4.435019080748228 L 3.126609916059331 -4.435019080748228 L 3.1187228113840977 -4.435019080748228 C 3.058052775420803 -4.447153087940887 3.0004162412556754 -4.456860293695015 2.9397462052923737 -4.463533997650978 L 2.9397462052923737 -4.463533997650978 C 2.6428846057858157 -4.497844889348836 2.342115582044265 -4.461677777993597 2.061850784903488 -4.357968135074841 L 2.1012863082796205 -4.253615673217969 L 2.25235469782823 -3.8519800351409432 C 2.217772777329144 -3.8386326272290177 2.1837975571897017 -3.8246785189574597 2.150429037409884 -3.8089043096070023 C 2.059944957571079 -3.7658608597890053 1.974489301637455 -3.7129597394491425 1.8956148863640367 -3.6511622161024286 L 1.8956148863640367 -3.6511622161024286 C 1.8664932691016543 -3.6287143027960105 1.8385850525585397 -3.6050529887703244 1.8112835363750561 -3.57957157366574 L 1.8112835363750561 -3.57957157366574 L 1.8112835363750561 -3.57957157366574 L 1.807036633857621 -3.5753246711483087 L 1.807036633857621 -3.5753246711483087 L 1.7997562295420253 -3.568650967192346 L 1.7997562295420253 -3.568650967192346 L 1.794902626664966 -3.5644040646749153 L 1.794902626664966 -3.5644040646749153 L 1.7918691248668055 -3.5613705628767507 L 1.7882289227090076 -3.55712366035932 L 1.7882289227090076 -3.55712366035932 L 1.7833753198319418 -3.5528767578418887 L 1.7833753198319418 -3.5528767578418887 L 1.7833753198319418 -3.5528767578418887 L 1.779128417314513 -3.548629855324458 L 1.779128417314513 -3.548629855324458 L 1.7748815147970778 -3.5443829528070268 C 1.686575200286807 -3.453829213299297 1.610866177438692 -3.3517954897843145 1.5497956813732372 -3.2410327729905424 L 1.5497956813732503 -3.2410327729905424 L 1.5461554792154526 -3.2337523686749465 L 1.5461554792154526 -3.2337523686749465 L 1.542515277057648 -3.2264719643593507 L 1.542515277057648 -3.2264719643593507 L 1.5388750748998503 -3.218584859684122 L 1.5388750748998503 -3.218584859684122 L 1.5352348727420524 -3.211304455368526 L 1.5352348727420524 -3.211304455368526 L 1.5352348727420524 -3.2040240510529308 L 1.5352348727420524 -3.2040240510529308 L 1.5315946705842547 -3.1961369463777025 C 1.5099955167041088 -3.1519672386866384 1.490954142494218 -3.106592049080093 1.4745648367787643 -3.0602360658199173 C 1.4480649571327182 -2.987870831222977 1.4277684520690463 -2.9133826576393096 1.4138948008154695 -2.837577033834615 L 1.4138948008154695 -2.837577033834615 L 1.4138948008154695 -2.828476528440122 L 1.4138948008154695 -2.828476528440122 L 1.4138948008154695 -2.8193760230456277 L 1.4138948008154695 -2.8193760230456277 L 1.4138948008154695 -2.810275517651133 L 1.4138948008154695 -2.810275517651133 L 1.4138948008154695 -2.8017817126162714 L 1.4138948008154695 -2.8017817126162714 L 1.4138948008154695 -2.7932879075814103 L 1.4138948008154695 -2.773873496073155 L 1.4138948008154695 -2.773873496073155 C 1.3850889125049304 -2.6474100951274586 1.3748698213178838 -2.517423255228325 1.383559782833812 -2.388012067346586 Z" fill="#000000" transform="matrix(1,0,0,1,0,0)" fill-rule="evenodd"/>
    </g>
    <g clip-path="url(#SvgjsClipPath1008)">
      <path d=" M 3.5543336696005814 -1.497982639765019 L 3.828562232154686 -1.1673309437650508 C 3.7051563969675176 -1.0714152742128888 3.5697220824811566 -0.9920719785273513 3.4257131933583898 -0.9313245038678248 L 3.420252890121693 -0.9313245038678248 L 3.412972485806097 -0.9313245038678248 L 3.4075121825694006 -0.9313245038678248 L 3.400838478613442 -0.9313245038678248 L 3.3941647746574772 -0.9313245038678248 C 3.206512153260133 -0.8557021222827981 3.0072223738753796 -0.8130118296854478 2.8050587254538746 -0.8051308290641668 L 2.7898912164630456 -0.8051308290641668 C 2.5843375777051665 -0.7977409148163828 2.379060180361731 -0.8260691956497768 2.1831908568300777 -0.8888554786935163 L 2.1753037521548446 -0.8888554786935163 L 2.1710568496374094 -0.8888554786935163 L 2.1674166474796115 -0.8888554786935163 L 2.160136243164016 -0.8888554786935163 L 2.160136243164016 -0.8888554786935163 C 2.1249476223052994 -0.9009894858861758 2.0903657018062267 -0.913730193438469 2.0563904816667717 -0.9276843017100269 L 2.01756165865027 -0.8233318398531564 L 1.8683133701805597 -0.4204828010568642 C 1.6967045001657217 -0.48929962725843446 1.5337960392085503 -0.5780847384800918 1.382953082474188 -0.6850041578568398 C 0.9724904833819641 -0.9756640187614307 0.6674156157531961 -1.391655848033317 0.513551467120133 -1.8704966605796618 L 0.513551467120133 -1.8704966605796618 L 0.5086978642430736 -1.88627086993012 L 0.5086978642430736 -1.88627086993012 C 0.42615535483139216 -2.1462756808362555 0.39041248609856327 -2.4188664096205152 0.4031320016669302 -2.691362247163071 L 0.4031320016669302 -2.6992493518383 L 0.4031320016669302 -2.6992493518383 L 0.4031320016669302 -2.725944167662151 C 0.42332566903300767 -3.0303243624039524 0.5030995589930328 -3.327775843572729 0.637925040844883 -3.6014127866125247 L 0.6415652430026941 -3.6086931909281224 L 0.6458121455201227 -3.6165802956033506 L 0.6458121455201227 -3.6220405988400475 L 0.6458121455201227 -3.6220405988400475 L 0.6494523476779205 -3.6299277035152757 L 0.6536992501953557 -3.6378148081905044 L 0.6536992501953557 -3.6438818117868346 L 0.6536992501953557 -3.6438818117868346 L 0.6579461527127909 -3.6517689164620633 L 0.6621930552302261 -3.6590493207776587 L 0.6658332573880239 -3.666936425452887 L 0.6658332573880239 -3.666936425452887 C 0.7038526385238901 -3.738425051528938 0.7455692239533378 -3.807885191345934 0.7908135314724181 -3.875034648806996 L 0.7908135314724181 -3.875034648806996 L 0.8217552498136995 -3.9205371757794687 L 1.171821357321921 -3.672396728689584 C 1.129533945111813 -3.6125422845957598 1.0906438016193194 -3.5503585655739114 1.0553348882724038 -3.4861397182822604 L 1.0553348882724038 -3.4861397182822618 L 1.0486611843164324 -3.4740057110896023 L 1.0486611843164324 -3.467938707493273 L 1.0486611843164324 -3.467938707493273 L 1.0450209821586347 -3.4618717038969433 L 1.0419874803604743 -3.4558047003006136 L 1.0419874803604743 -3.449130996344651 L 1.0419874803604743 -3.449130996344651 L 1.0419874803604743 -3.443670693107954 L 1.0419874803604743 -3.437603689511625 L 1.0389539785623136 -3.431536685915295 L 1.0389539785623136 -3.431536685915295 L 1.0389539785623136 -3.4272897833978644 L 1.0389539785623136 -3.4212227798015347 L 1.0243931699310962 -3.4194026787226357 L 1.0243931699310962 -3.413335675126306 L 1.0243931699310962 -3.4072686715299767 L 1.0213596681329355 -3.401201667933647 C 0.9964849533879816 -3.3490254370052117 0.9740370400815573 -3.296242505717143 0.9540159282136693 -3.242246173709809 C 0.8927353789642398 -3.076602297679048 0.8547571587323552 -2.9032500988786767 0.8411696613219368 -2.7271575683814184 L 0.8411696613219368 -2.7101699583116945 L 0.8411696613219368 -2.7034962543557306 L 0.8411696613219368 -2.685295243566742 C 0.8346717044945372 -2.5621155178791133 0.8399537580700067 -2.4385967265758697 0.8569438706723963 -2.3164214249099 L 0.8569438706723896 -2.3164214249099 C 0.861797473549449 -2.2800194033319183 0.8678644771457831 -2.2436173817539395 0.8757515818210162 -2.2066086598163284 L 0.8757515818210162 -2.2066086598163284 C 0.8866721882944096 -2.1520056274493613 0.9000195962063393 -2.09861599580166 0.9151871051971547 -2.045833064513592 L 0.9151871051971547 -2.045833064513592 L 0.9194340077145899 -2.032485656601666 L 0.9194340077145899 -2.0239918515668043 L 0.9194340077145899 -2.016711447251209 L 0.9194340077145899 -2.009431042935614 C 0.9367940167338046 -1.9518235055673885 0.9570429862603977 -1.8951263908929317 0.9801040436778848 -1.839554942238375 L 0.9801040436778848 -1.839554942238375 C 1.0971010245622947 -1.5633063460766716 1.2780032458391881 -1.3187764469713525 1.5079333565585689 -1.1260753193100084 L 1.579523998995257 -1.2116200700182578 L 1.8555726626282674 -1.5386315638604282 C 1.8840875795310126 -1.5143635494751089 1.9132091967934017 -1.4919156361686894 1.9435442147750457 -1.4706811235815351 C 2.0252923928678364 -1.412660458377704 2.1131882244615716 -1.3638294408256297 2.205638770136489 -1.325073037269623 L 2.205638770136489 -1.325073037269623 C 2.239613990275937 -1.311321162451275 2.274195910775017 -1.2985804548989823 2.309384531633733 -1.286850914612745 L 2.309384531633733 -1.286850914612745 L 2.3154515352300677 -1.286850914612745 L 2.3154515352300677 -1.286850914612745 L 2.3251587409841927 -1.286850914612745 L 2.3251587409841927 -1.286850914612745 L 2.331225744580527 -1.286850914612745 L 2.331225744580527 -1.286850914612745 L 2.335472647097962 -1.286850914612745 L 2.3409329503346585 -1.286850914612745 L 2.3409329503346585 -1.286850914612745 L 2.346999953930993 -1.286850914612745 L 2.346999953930993 -1.286850914612745 L 2.350640156088791 -1.286850914612745 L 2.356707159685125 -1.286850914612745 L 2.356707159685125 -1.286850914612745 L 2.3627741632814523 -1.286850914612745 C 2.438155930413672 -1.2666725079820065 2.5150570259315725 -1.2526720446819137 2.5927135995823525 -1.2449885897980693 C 2.641856328712623 -1.2407416872806394 2.690392357483263 -1.2389215862017404 2.7389283862539027 -1.2395282865613733 L 2.799598422217191 -1.2395282865613733 C 2.8485986374145806 -1.2423216997580182 2.8974096411053485 -1.2477901524536645 2.945813208888741 -1.2559091962714635 C 3.0216770783445432 -1.2690252550443484 3.0963460592840284 -1.2883012147977486 3.1690789412336695 -1.313545730436597 L 3.1690789412336695 -1.313545730436597 L 3.177572746268527 -1.317185932594394 L 3.177572746268527 -1.317185932594394 L 3.1866732516630214 -1.317185932594394 L 3.1866732516630214 -1.317185932594394 L 3.1945603563382545 -1.317185932594394 L 3.1945603563382545 -1.317185932594394 L 3.2030541613731116 -1.317185932594394 L 3.2030541613731116 -1.317185932594394 L 3.2109412660483447 -1.3202194343925582 L 3.2109412660483447 -1.3202194343925582 L 3.21822167036394 -1.3202194343925582 L 3.21822167036394 -1.3202194343925582 L 3.2248953743198987 -1.3202194343925582 L 3.2248953743198987 -1.3202194343925582 C 3.342424394230029 -1.36390087761368 3.453301058367301 -1.4237293538424511 3.5543336696005814 -1.497982639765019 Z" fill="#3361e1" transform="matrix(1,0,0,1,0,0)" fill-rule="evenodd"/>
    </g>
    <g clip-path="url(#SvgjsClipPath1008)">
      <path d=" M 3.200627359934562 -3.8556202372987416 L 3.3322813379749143 -4.264536279691363 C 3.47956771379764 -4.211861500966065 3.61929371940294 -4.140060692246259 3.7478710843235032 -4.0509777531005575 L 3.7533313875602 -4.047944251302393 L 3.758791690796897 -4.043090648425329 L 3.7642519940335935 -4.043090648425329 L 3.7697122972702903 -4.038843745907898 L 3.7751726005069868 -4.034596843390467 C 3.9403292003848915 -3.9168387107506994 4.083989041507902 -3.771537042872002 4.199862852250057 -3.605052988770325 L 4.199862852250064 -3.605052988770325 L 4.206536556206029 -3.5947390826565644 L 4.206536556206029 -3.5947390826565644 C 4.322858399080469 -3.4258570162013164 4.408879421232271 -3.2380068126955814 4.46074400689224 -3.0396082535923963 L 4.46074400689224 -3.0311144485575348 L 4.46074400689224 -3.027474246399737 L 4.46074400689224 -3.02383404424194 L 4.46074400689224 -3.015946939566711 L 4.46074400689224 -3.015946939566711 C 4.469844512286734 -2.9795449179887328 4.477731616961966 -2.943142896410755 4.484405320917924 -2.9073475751924094 L 4.593004685292229 -2.930402188858462 L 5.012841334158239 -3.020193842084142 C 5.1418337848398785 -2.3378688459822343 4.960138075032537 -1.6335477774879097 4.517167140338104 -1.0987738031265262 L 4.517167140338104 -1.0987738031265262 L 4.5062465338647115 -1.0854263952146006 L 4.5062465338647115 -1.0854263952146006 L 4.5062465338647115 -1.0854263952146006 C 4.330261578198096 -0.8768307135144005 4.1189406202931655 -0.7008325979414911 3.8819518638023918 -0.5654841870091447 L 3.874064759127159 -0.561237284491714 L 3.874064759127159 -0.561237284491714 L 3.850403445101473 -0.5484965769394217 C 3.5828467674966604 -0.40110949007341556 3.288855193273127 -0.30792281998292736 2.9852487322648598 -0.2742680143853189 L 2.976754927229996 -0.2742680143853189 L 2.9591606168006446 -0.2742680143853189 L 2.9506668117657804 -0.2742680143853189 L 2.911231288389635 -0.2742680143853189 C 2.830510293179159 -0.26780076063661973 2.7495055716649484 -0.26557313079497913 2.6685511445364427 -0.26759431042935766 L 2.6685511445364427 -0.26759431042935766 L 2.6133414118098446 -0.2675943104293568 L 2.6345759243969944 -0.6965314646898664 C 2.7079161571958976 -0.6919811925495871 2.7814679221448593 -0.6919811925495871 2.8548081549437625 -0.6965314646898664 L 2.8548081549437625 -0.6965314646898664 L 2.868762263215323 -0.6965314646898664 L 2.911231288389635 -0.6965314646898664 L 2.9179049923455938 -0.6965314646898664 L 2.9452065085290773 -0.6965314646898664 L 2.9524869128446727 -0.6965314646898664 L 2.9591606168006312 -0.6965314646898664 C 3.0161904506061283 -0.7038118690054622 3.0732202844116316 -0.7129123743999566 3.129036717497867 -0.7250463815926151 C 3.301878633070136 -0.7625186806439892 3.4686911856495017 -0.8237717599265002 3.6247109113179885 -0.9070564894825068 L 3.6398784203088237 -0.9155502945173688 L 3.644125322826259 -0.9155502945173688 L 3.659899532176712 -0.9246507999118632 C 3.7675002716841943 -0.9852212275974401 3.869077151864131 -1.0559187362026723 3.963249711993192 -1.1357825250641342 L 3.963249711993199 -1.1357825250641342 C 3.991764628895944 -1.160050539449455 4.019066145079434 -1.184925254194407 4.04576096090328 -1.2104066692989917 L 4.04576096090328 -1.2104066692989917 C 4.085803184639056 -1.248628791955869 4.124025307295934 -1.2886710156916448 4.160427328873905 -1.3317467412255861 L 4.160427328873905 -1.3317467412255861 L 4.169527834268401 -1.3420606473393466 L 4.175594837864734 -1.3487343512953092 L 4.1804484407417934 -1.3548013548916389 L 4.185302043618872 -1.356621455970537 C 4.224130866635381 -1.4027306833026425 4.260532888213358 -1.4512667120732798 4.295114808712437 -1.5010161415631842 L 4.295114808712437 -1.5010161415631842 C 4.465286054753811 -1.7473739282305996 4.574649336147015 -2.0305541359445622 4.614239197879391 -2.327342031383289 L 4.503213032066544 -2.342509540374114 L 4.0785227803234605 -2.39893267381998 C 4.0833763832005205 -2.4353346953979584 4.0870165853583185 -2.4723434173355696 4.088836686437217 -2.509352139273181 C 4.093588910230572 -2.609395021345557 4.087690991328376 -2.7096596426830275 4.0712423760078655 -2.8084554165722353 L 4.0712423760078655 -2.8084554165722353 C 4.065175372411531 -2.844857438150213 4.057288267736311 -2.8812594597281915 4.0475810619821795 -2.917054780946536 L 4.0475810619821795 -2.917054780946536 L 4.0475810619821795 -2.917054780946536 L 4.0475810619821795 -2.9231217845428663 L 4.0475810619821795 -2.9231217845428663 L 4.0475810619821795 -2.9328289902969935 L 4.0475810619821795 -2.9328289902969935 L 4.0475810619821795 -2.9388959938933237 L 4.0475810619821795 -2.9388959938933237 L 4.0475810619821795 -2.943142896410754 L 4.0475810619821795 -2.948603199647451 L 4.0475810619821795 -2.948603199647451 L 4.0475810619821795 -2.95467020324378 L 4.0475810619821795 -2.95467020324378 L 4.0475810619821795 -2.95467020324378 L 4.0475810619821795 -2.96073720684011 L 4.0475810619821795 -2.96073720684011 L 4.0475810619821795 -2.9668042104364396 C 4.024462722900791 -3.041369311242276 3.995032403864193 -3.1138287863875718 3.959609509835401 -3.183396238825414 C 3.9373066678497297 -3.2266848260608083 3.9128044148980945 -3.2688044013826474 3.8861987663198074 -3.30958991362907 L 3.886198766319814 -3.3095899136290674 L 3.881951863802379 -3.3162636175850304 L 3.881951863802379 -3.3162636175850304 L 3.8770982609253193 -3.322937321540993 L 3.8770982609253193 -3.322937321540993 L 3.87224465804826 -3.3302177258565884 L 3.87224465804826 -3.3302177258565884 L 3.8437297411455082 -3.358732642759339 L 3.8437297411455082 -3.358732642759339 L 3.8394828386280797 -3.3654063467153015 L 3.8394828386280797 -3.3654063467153015 L 3.8346292357510134 -3.372080050671264 C 3.805717749365306 -3.4122613782734117 3.7745224345984716 -3.4507491042844434 3.7411973803675385 -3.4873531190015274 C 3.6897004156806705 -3.5443674598749126 3.6334821249940874 -3.596932576437456 3.573141380749201 -3.6444885121464683 L 3.573141380749208 -3.6444885121464683 L 3.5658609764336124 -3.6505555157427976 L 3.5658609764336124 -3.6505555157427976 L 3.5549403699602187 -3.6620828225758237 L 3.5549403699602187 -3.6620828225758237 L 3.5476599656446233 -3.6675431258125206 L 3.5476599656446233 -3.6675431258125206 L 3.540986261688665 -3.673003429049217 L 3.540986261688665 -3.673003429049217 L 3.534919258092331 -3.6778570319262807 L 3.534919258092331 -3.6778570319262807 L 3.5282455541363658 -3.6827106348033447 L 3.5282455541363658 -3.6827106348033447 L 3.5221785505400383 -3.6875642376804083 L 3.5221785505400383 -3.6875642376804083 C 3.42316352551828 -3.7579898915326106 3.314975964655658 -3.814533201643833 3.200627359934562 -3.8556202372987407 Z" fill="#51a8db" transform="matrix(1,0,0,1,0,0)" fill-rule="evenodd"/>
    </g>
    <g clip-path="url(#SvgjsClipPath1008)">
      <path d=" M 2.7322546822979112 -2.110750002994319 C 2.9215035357838106 -2.1107501621765867 3.0921062418746565 -2.224783440142079 3.164471834936009 -2.399650102163844 C 3.2368374279973544 -2.5745167641856086 3.1967060322238097 -2.7757587649765494 3.062800073625271 -2.9094910452889726 C 2.928894115026726 -3.043223325601395 2.7276001988728975 -3.0830935040375316 2.5528276043899125 -3.010501019829844 C 2.378055009906941 -2.9379085356221566 2.264243246067009 -2.767157974215411 2.264488705020885 -2.5779092799117063 C 2.2651567937201964 -2.31994480106468 2.4742895536289367 -2.1110832898717633 2.732254682297898 -2.110750002994319 Z" fill="#000000" transform="matrix(1,0,0,1,0,0)" fill-rule="evenodd"/>
    </g>
  </g>
  <defs>
    <clipPath id="SvgjsClipPath1009">
      <path d=" M 0.4000984998687698 -4.9094587619812105 h 4.6594587619812105 v 4.6594587619812105 h -4.6594587619812105 Z"/>
    </clipPath>
    <clipPath id="SvgjsClipPath1008">
      <path d=" M 0.4000984998687698 -4.9094587619812105 L 5.05955726184998 -4.9094587619812105 L 5.05955726184998 -0.25 L 0.4000984998687698 -0.25 Z"/>
    </clipPath>
  </defs>
</svg>